<svg width="37" height="22" viewBox="0 0 37 22" fill="none" xmlns="http://www.w3.org/2000/svg">
<rect width="37" height="22" rx="11" fill="#F9F5FF"/>
<path d="M12.2678 6.27273V15H10.9467V7.59375H10.8956L8.80753 8.95739V7.69602L10.9851 6.27273H12.2678ZM14.6286 15V14.0455L17.5817 10.9858C17.897 10.6534 18.157 10.3622 18.3615 10.1122C18.5689 9.85937 18.7237 9.61932 18.826 9.39205C18.9283 9.16477 18.9794 8.9233 18.9794 8.66761C18.9794 8.37784 18.9112 8.12784 18.7749 7.91761C18.6385 7.70455 18.4524 7.54119 18.2166 7.42756C17.9808 7.31108 17.7152 7.25284 17.4197 7.25284C17.1072 7.25284 16.8345 7.31676 16.6016 7.4446C16.3686 7.57244 16.1896 7.75284 16.0646 7.9858C15.9396 8.21875 15.8771 8.49148 15.8771 8.80398H14.62C14.62 8.27273 14.7422 7.80824 14.9865 7.41051C15.2308 7.01278 15.5661 6.70455 15.9922 6.4858C16.4183 6.2642 16.9027 6.15341 17.4453 6.15341C17.9936 6.15341 18.4766 6.26278 18.8942 6.48153C19.3146 6.69744 19.6428 6.9929 19.8786 7.3679C20.1143 7.74006 20.2322 8.16051 20.2322 8.62926C20.2322 8.95312 20.1712 9.26989 20.049 9.57955C19.9297 9.8892 19.7209 10.2344 19.4226 10.6151C19.1243 10.9929 18.7095 11.4517 18.1783 11.9915L16.4439 13.8068V13.8707H20.3729V15H14.6286ZM25.0263 15.1193C24.4411 15.1193 23.9183 15.0185 23.4581 14.8168C23.0007 14.6151 22.6385 14.3352 22.3714 13.9773C22.1072 13.6165 21.9652 13.1989 21.9453 12.7244H23.2834C23.3004 12.983 23.3871 13.2074 23.5433 13.3977C23.7024 13.5852 23.9098 13.7301 24.1655 13.8324C24.4212 13.9347 24.7053 13.9858 25.0178 13.9858C25.3615 13.9858 25.6655 13.9261 25.9297 13.8068C26.1967 13.6875 26.4055 13.5213 26.5561 13.3082C26.7067 13.0923 26.782 12.8438 26.782 12.5625C26.782 12.2699 26.7067 12.0128 26.5561 11.7912C26.4084 11.5668 26.1911 11.3906 25.9041 11.2628C25.62 11.1349 25.2763 11.071 24.8729 11.071H24.1357V9.99716H24.8729C25.1967 9.99716 25.4808 9.93892 25.7251 9.82244C25.9723 9.70597 26.1655 9.54403 26.3047 9.33665C26.4439 9.12642 26.5135 8.88068 26.5135 8.59943C26.5135 8.32955 26.4524 8.09517 26.3303 7.89631C26.2109 7.6946 26.0405 7.53693 25.8189 7.4233C25.6001 7.30966 25.3416 7.25284 25.0433 7.25284C24.7592 7.25284 24.4936 7.3054 24.2464 7.41051C24.0021 7.51278 23.8033 7.66051 23.6499 7.85369C23.4964 8.04403 23.4141 8.27273 23.4027 8.53977H22.1286C22.1428 8.06818 22.282 7.65341 22.5462 7.29545C22.8132 6.9375 23.1655 6.65767 23.603 6.45597C24.0405 6.25426 24.5263 6.15341 25.0604 6.15341C25.62 6.15341 26.103 6.26278 26.5092 6.48153C26.9183 6.69744 27.2337 6.9858 27.4553 7.34659C27.6797 7.70739 27.7905 8.10227 27.7876 8.53125C27.7905 9.01989 27.6541 9.43466 27.3786 9.77557C27.1058 10.1165 26.7422 10.3452 26.2876 10.4616V10.5298C26.8672 10.6179 27.3161 10.848 27.6342 11.2202C27.9553 11.5923 28.1143 12.054 28.1115 12.6051C28.1143 13.0852 27.9808 13.5156 27.7109 13.8963C27.4439 14.277 27.0788 14.5767 26.6158 14.7955C26.1527 15.0114 25.6229 15.1193 25.0263 15.1193Z" fill="#93312B"/>
</svg>
