<svg width="21" height="15" viewBox="0 0 21 15" fill="none" xmlns="http://www.w3.org/2000/svg">
<g id="3 User">
<path id="Stroke 1" d="M15.3955 6.55514C16.7975 6.55514 17.9349 5.41859 17.9349 4.01654C17.9349 2.6145 16.7975 1.47795 15.3955 1.47795" stroke="#6B788E" stroke-width="1.2" stroke-linecap="round" stroke-linejoin="round"/>
<path id="Stroke 3" d="M16.563 9.3139C16.9816 9.34278 17.3979 9.40213 17.8078 9.49437C18.3773 9.60586 19.0622 9.83927 19.3061 10.3502C19.4617 10.6774 19.4617 11.0584 19.3061 11.3865C19.0631 11.8974 18.3773 12.13 17.8078 12.2471" stroke="#6B788E" stroke-width="1.2" stroke-linecap="round" stroke-linejoin="round"/>
<path id="Stroke 5" d="M5.50375 6.55514C4.10171 6.55514 2.96436 5.41859 2.96436 4.01654C2.96436 2.6145 4.10171 1.47795 5.50375 1.47795" stroke="#6B788E" stroke-width="1.2" stroke-linecap="round" stroke-linejoin="round"/>
<path id="Stroke 7" d="M4.33631 9.3139C3.91762 9.34278 3.50134 9.40213 3.09148 9.49437C2.522 9.60586 1.83702 9.83927 1.59399 10.3502C1.43758 10.6774 1.43758 11.0584 1.59399 11.3865C1.83622 11.8974 2.522 12.13 3.09148 12.2471" stroke="#6B788E" stroke-width="1.2" stroke-linecap="round" stroke-linejoin="round"/>
<path id="Stroke 9" fill-rule="evenodd" clip-rule="evenodd" d="M10.4455 9.8606C13.2865 9.8606 15.7136 10.2905 15.7136 12.011C15.7136 13.7306 13.3026 14.1766 10.4455 14.1766C7.60376 14.1766 5.17746 13.7467 5.17746 12.0262C5.17746 10.3058 7.58852 9.8606 10.4455 9.8606Z" stroke="#6B788E" stroke-width="1.2" stroke-linecap="round" stroke-linejoin="round"/>
<path id="Stroke 11" fill-rule="evenodd" clip-rule="evenodd" d="M10.4455 7.40655C8.57188 7.40655 7.06958 5.90425 7.06958 4.02978C7.06958 2.15611 8.57188 0.653809 10.4455 0.653809C12.3192 0.653809 13.8215 2.15611 13.8215 4.02978C13.8215 5.90425 12.3192 7.40655 10.4455 7.40655Z" stroke="#6B788E" stroke-width="1.2" stroke-linecap="round" stroke-linejoin="round"/>
</g>
</svg>
