<svg width="19" height="20" viewBox="0 0 19 20" fill="none" xmlns="http://www.w3.org/2000/svg">
<g id="vuesax/linear/receipt-item">
<path id="Vector" d="M17.4167 5.23974V7.15557C17.4167 8.40641 16.625 9.19807 15.3742 9.19807H12.6667V3.66432C12.6667 2.78557 13.3871 2.07307 14.2658 2.07307C15.1287 2.08099 15.9204 2.42932 16.4904 2.99932C17.0604 3.57724 17.4167 4.36891 17.4167 5.23974Z" stroke="#6B788E" stroke-width="1.2" stroke-miterlimit="10" stroke-linecap="round" stroke-linejoin="round"/>
<path id="Vector_2" d="M1.58334 6.03141V17.1147C1.58334 17.7718 2.32751 18.1439 2.85001 17.7481L4.20376 16.7347C4.52043 16.4972 4.96376 16.5289 5.24876 16.8139L6.56293 18.136C6.87168 18.4447 7.37834 18.4447 7.68709 18.136L9.01709 16.806C9.29418 16.5289 9.73751 16.4972 10.0463 16.7347L11.4 17.7481C11.9225 18.136 12.6667 17.7639 12.6667 17.1147V3.65641C12.6667 2.78557 13.3792 2.07307 14.25 2.07307H5.54168H4.75001C2.37501 2.07307 1.58334 3.49016 1.58334 5.23974V6.03141Z" stroke="#6B788E" stroke-width="1.2" stroke-miterlimit="10" stroke-linecap="round" stroke-linejoin="round"/>
<path id="Vector_3" d="M7.125 10.7893H9.5" stroke="#6B788E" stroke-width="1.2" stroke-linecap="round" stroke-linejoin="round"/>
<path id="Vector_4" d="M7.125 7.62267H9.5" stroke="#6B788E" stroke-width="1.2" stroke-linecap="round" stroke-linejoin="round"/>
<path id="Vector_5" d="M4.74652 10.7814H4.75363" stroke="#6B788E" stroke-width="1.2" stroke-linecap="round" stroke-linejoin="round"/>
<path id="Vector_6" d="M4.74652 7.61475H4.75363" stroke="#6B788E" stroke-width="1.2" stroke-linecap="round" stroke-linejoin="round"/>
</g>
</svg>
